<mxfile host="app.diagrams.net" modified="2023-08-01T19:26:18.893Z" agent="Mozilla/5.0 (Windows NT 10.0; Win64; x64) AppleWebKit/537.36 (KHTML, like Gecko) Chrome/115.0.0.0 Safari/537.36" etag="dY7zyeSJ1zkPXjGZWNOx" version="21.3.4" type="device">
  <diagram name="HLD" id="X5aubFTDHx7GSLZ1n2Ee">
    <mxGraphModel dx="1728" dy="960" grid="0" gridSize="10" guides="1" tooltips="1" connect="1" arrows="1" fold="1" page="0" pageScale="1" pageWidth="1100" pageHeight="850" background="none" math="0" shadow="0">
      <root>
        <mxCell id="0" />
        <mxCell id="1" parent="0" />
        <mxCell id="GRbV-1sKYe_AMScIZNAF-49" style="edgeStyle=orthogonalEdgeStyle;rounded=0;orthogonalLoop=1;jettySize=auto;html=1;exitX=1;exitY=0.5;exitDx=0;exitDy=0;entryX=-0.006;entryY=0.082;entryDx=0;entryDy=0;entryPerimeter=0;startArrow=classic;startFill=1;" edge="1" parent="1" source="GRbV-1sKYe_AMScIZNAF-2" target="GRbV-1sKYe_AMScIZNAF-26">
          <mxGeometry relative="1" as="geometry" />
        </mxCell>
        <mxCell id="GRbV-1sKYe_AMScIZNAF-56" style="edgeStyle=orthogonalEdgeStyle;rounded=0;orthogonalLoop=1;jettySize=auto;html=1;exitX=0;exitY=0.5;exitDx=0;exitDy=0;entryX=1.011;entryY=0.081;entryDx=0;entryDy=0;entryPerimeter=0;endArrow=none;endFill=0;startArrow=classic;startFill=1;dashed=1;" edge="1" parent="1" source="GRbV-1sKYe_AMScIZNAF-2" target="GRbV-1sKYe_AMScIZNAF-31">
          <mxGeometry relative="1" as="geometry" />
        </mxCell>
        <mxCell id="GRbV-1sKYe_AMScIZNAF-2" value="" style="rounded=0;whiteSpace=wrap;html=1;fillColor=#dae8fc;strokeColor=#6c8ebf;" vertex="1" parent="1">
          <mxGeometry x="420" width="180" height="110" as="geometry" />
        </mxCell>
        <mxCell id="GRbV-1sKYe_AMScIZNAF-3" value="User" style="text;html=1;strokeColor=none;fillColor=none;align=center;verticalAlign=middle;whiteSpace=wrap;rounded=0;fontStyle=1" vertex="1" parent="1">
          <mxGeometry x="420" width="180" height="30" as="geometry" />
        </mxCell>
        <mxCell id="GRbV-1sKYe_AMScIZNAF-4" value="mongo" style="shape=cylinder3;whiteSpace=wrap;html=1;boundedLbl=1;backgroundOutline=1;size=15;" vertex="1" parent="1">
          <mxGeometry x="530" y="40" width="60" height="60" as="geometry" />
        </mxCell>
        <mxCell id="GRbV-1sKYe_AMScIZNAF-5" value="node.js" style="rounded=1;whiteSpace=wrap;html=1;" vertex="1" parent="1">
          <mxGeometry x="430" y="40" width="70" height="60" as="geometry" />
        </mxCell>
        <mxCell id="GRbV-1sKYe_AMScIZNAF-45" style="edgeStyle=orthogonalEdgeStyle;rounded=0;orthogonalLoop=1;jettySize=auto;html=1;exitX=1;exitY=0.5;exitDx=0;exitDy=0;entryX=0;entryY=0.291;entryDx=0;entryDy=0;entryPerimeter=0;startArrow=classic;startFill=1;" edge="1" parent="1" source="GRbV-1sKYe_AMScIZNAF-10" target="GRbV-1sKYe_AMScIZNAF-26">
          <mxGeometry relative="1" as="geometry" />
        </mxCell>
        <mxCell id="GRbV-1sKYe_AMScIZNAF-57" style="edgeStyle=orthogonalEdgeStyle;rounded=0;orthogonalLoop=1;jettySize=auto;html=1;exitX=0;exitY=0.5;exitDx=0;exitDy=0;entryX=0.987;entryY=0.29;entryDx=0;entryDy=0;entryPerimeter=0;endArrow=none;endFill=0;startArrow=classic;startFill=1;dashed=1;" edge="1" parent="1" source="GRbV-1sKYe_AMScIZNAF-10" target="GRbV-1sKYe_AMScIZNAF-31">
          <mxGeometry relative="1" as="geometry" />
        </mxCell>
        <mxCell id="GRbV-1sKYe_AMScIZNAF-10" value="" style="rounded=0;whiteSpace=wrap;html=1;fillColor=#dae8fc;strokeColor=#6c8ebf;" vertex="1" parent="1">
          <mxGeometry x="420" y="140" width="180" height="110" as="geometry" />
        </mxCell>
        <mxCell id="GRbV-1sKYe_AMScIZNAF-11" value="Ticket" style="text;html=1;strokeColor=none;fillColor=none;align=center;verticalAlign=middle;whiteSpace=wrap;rounded=0;fontStyle=1" vertex="1" parent="1">
          <mxGeometry x="420" y="140" width="180" height="30" as="geometry" />
        </mxCell>
        <mxCell id="GRbV-1sKYe_AMScIZNAF-12" value="mongo" style="shape=cylinder3;whiteSpace=wrap;html=1;boundedLbl=1;backgroundOutline=1;size=15;" vertex="1" parent="1">
          <mxGeometry x="530" y="180" width="60" height="60" as="geometry" />
        </mxCell>
        <mxCell id="GRbV-1sKYe_AMScIZNAF-13" value="node.js" style="rounded=1;whiteSpace=wrap;html=1;" vertex="1" parent="1">
          <mxGeometry x="430" y="180" width="70" height="60" as="geometry" />
        </mxCell>
        <mxCell id="GRbV-1sKYe_AMScIZNAF-46" style="edgeStyle=orthogonalEdgeStyle;rounded=0;orthogonalLoop=1;jettySize=auto;html=1;exitX=1;exitY=0.5;exitDx=0;exitDy=0;entryX=0;entryY=0.5;entryDx=0;entryDy=0;startArrow=classic;startFill=1;" edge="1" parent="1" source="GRbV-1sKYe_AMScIZNAF-14" target="GRbV-1sKYe_AMScIZNAF-26">
          <mxGeometry relative="1" as="geometry" />
        </mxCell>
        <mxCell id="GRbV-1sKYe_AMScIZNAF-58" style="edgeStyle=orthogonalEdgeStyle;rounded=0;orthogonalLoop=1;jettySize=auto;html=1;exitX=0;exitY=0.5;exitDx=0;exitDy=0;entryX=1;entryY=0.5;entryDx=0;entryDy=0;endArrow=none;endFill=0;startArrow=classic;startFill=1;dashed=1;" edge="1" parent="1" source="GRbV-1sKYe_AMScIZNAF-14" target="GRbV-1sKYe_AMScIZNAF-31">
          <mxGeometry relative="1" as="geometry" />
        </mxCell>
        <mxCell id="GRbV-1sKYe_AMScIZNAF-14" value="" style="rounded=0;whiteSpace=wrap;html=1;fillColor=#dae8fc;strokeColor=#6c8ebf;" vertex="1" parent="1">
          <mxGeometry x="420" y="280" width="180" height="110" as="geometry" />
        </mxCell>
        <mxCell id="GRbV-1sKYe_AMScIZNAF-15" value="Order" style="text;html=1;strokeColor=none;fillColor=none;align=center;verticalAlign=middle;whiteSpace=wrap;rounded=0;fontStyle=1" vertex="1" parent="1">
          <mxGeometry x="420" y="280" width="180" height="30" as="geometry" />
        </mxCell>
        <mxCell id="GRbV-1sKYe_AMScIZNAF-16" value="mongo" style="shape=cylinder3;whiteSpace=wrap;html=1;boundedLbl=1;backgroundOutline=1;size=15;" vertex="1" parent="1">
          <mxGeometry x="530" y="320" width="60" height="60" as="geometry" />
        </mxCell>
        <mxCell id="GRbV-1sKYe_AMScIZNAF-17" value="node.js" style="rounded=1;whiteSpace=wrap;html=1;" vertex="1" parent="1">
          <mxGeometry x="430" y="320" width="70" height="60" as="geometry" />
        </mxCell>
        <mxCell id="GRbV-1sKYe_AMScIZNAF-48" style="edgeStyle=orthogonalEdgeStyle;rounded=0;orthogonalLoop=1;jettySize=auto;html=1;exitX=1;exitY=0.5;exitDx=0;exitDy=0;entryX=0;entryY=0.918;entryDx=0;entryDy=0;entryPerimeter=0;startArrow=classic;startFill=1;" edge="1" parent="1" source="GRbV-1sKYe_AMScIZNAF-18" target="GRbV-1sKYe_AMScIZNAF-26">
          <mxGeometry relative="1" as="geometry" />
        </mxCell>
        <mxCell id="GRbV-1sKYe_AMScIZNAF-60" style="edgeStyle=orthogonalEdgeStyle;rounded=0;orthogonalLoop=1;jettySize=auto;html=1;exitX=0;exitY=0.5;exitDx=0;exitDy=0;entryX=0.999;entryY=0.918;entryDx=0;entryDy=0;entryPerimeter=0;endArrow=none;endFill=0;startArrow=classic;startFill=1;dashed=1;" edge="1" parent="1" source="GRbV-1sKYe_AMScIZNAF-18" target="GRbV-1sKYe_AMScIZNAF-31">
          <mxGeometry relative="1" as="geometry" />
        </mxCell>
        <mxCell id="GRbV-1sKYe_AMScIZNAF-18" value="" style="rounded=0;whiteSpace=wrap;html=1;fillColor=#dae8fc;strokeColor=#6c8ebf;" vertex="1" parent="1">
          <mxGeometry x="420" y="560" width="180" height="110" as="geometry" />
        </mxCell>
        <mxCell id="GRbV-1sKYe_AMScIZNAF-19" value="Expiration" style="text;html=1;strokeColor=none;fillColor=none;align=center;verticalAlign=middle;whiteSpace=wrap;rounded=0;fontStyle=1" vertex="1" parent="1">
          <mxGeometry x="420" y="560" width="180" height="30" as="geometry" />
        </mxCell>
        <mxCell id="GRbV-1sKYe_AMScIZNAF-20" value="redis" style="shape=cylinder3;whiteSpace=wrap;html=1;boundedLbl=1;backgroundOutline=1;size=15;fillColor=#f5f5f5;fontColor=#333333;strokeColor=#666666;" vertex="1" parent="1">
          <mxGeometry x="530" y="600" width="60" height="60" as="geometry" />
        </mxCell>
        <mxCell id="GRbV-1sKYe_AMScIZNAF-21" value="node.js" style="rounded=1;whiteSpace=wrap;html=1;" vertex="1" parent="1">
          <mxGeometry x="430" y="600" width="70" height="60" as="geometry" />
        </mxCell>
        <mxCell id="GRbV-1sKYe_AMScIZNAF-47" style="edgeStyle=orthogonalEdgeStyle;rounded=0;orthogonalLoop=1;jettySize=auto;html=1;exitX=1;exitY=0.5;exitDx=0;exitDy=0;entryX=-0.005;entryY=0.709;entryDx=0;entryDy=0;entryPerimeter=0;startArrow=classic;startFill=1;" edge="1" parent="1" source="GRbV-1sKYe_AMScIZNAF-22" target="GRbV-1sKYe_AMScIZNAF-26">
          <mxGeometry relative="1" as="geometry" />
        </mxCell>
        <mxCell id="GRbV-1sKYe_AMScIZNAF-59" style="edgeStyle=orthogonalEdgeStyle;rounded=0;orthogonalLoop=1;jettySize=auto;html=1;exitX=0;exitY=0.5;exitDx=0;exitDy=0;entryX=1.013;entryY=0.71;entryDx=0;entryDy=0;entryPerimeter=0;endArrow=none;endFill=0;startArrow=classic;startFill=1;dashed=1;" edge="1" parent="1" source="GRbV-1sKYe_AMScIZNAF-22" target="GRbV-1sKYe_AMScIZNAF-31">
          <mxGeometry relative="1" as="geometry" />
        </mxCell>
        <mxCell id="GRbV-1sKYe_AMScIZNAF-22" value="" style="rounded=0;whiteSpace=wrap;html=1;fillColor=#dae8fc;strokeColor=#6c8ebf;" vertex="1" parent="1">
          <mxGeometry x="420" y="420" width="180" height="110" as="geometry" />
        </mxCell>
        <mxCell id="GRbV-1sKYe_AMScIZNAF-23" value="Payments" style="text;html=1;strokeColor=none;fillColor=none;align=center;verticalAlign=middle;whiteSpace=wrap;rounded=0;fontStyle=1" vertex="1" parent="1">
          <mxGeometry x="420" y="420" width="180" height="30" as="geometry" />
        </mxCell>
        <mxCell id="GRbV-1sKYe_AMScIZNAF-24" value="mongo" style="shape=cylinder3;whiteSpace=wrap;html=1;boundedLbl=1;backgroundOutline=1;size=15;" vertex="1" parent="1">
          <mxGeometry x="530" y="460" width="60" height="60" as="geometry" />
        </mxCell>
        <mxCell id="GRbV-1sKYe_AMScIZNAF-25" value="node.js" style="rounded=1;whiteSpace=wrap;html=1;" vertex="1" parent="1">
          <mxGeometry x="430" y="460" width="70" height="60" as="geometry" />
        </mxCell>
        <mxCell id="GRbV-1sKYe_AMScIZNAF-26" value="NATS&lt;br&gt;Streaming&lt;br&gt;Server" style="rounded=0;whiteSpace=wrap;html=1;fillColor=#ffe6cc;strokeColor=#d79b00;" vertex="1" parent="1">
          <mxGeometry x="680" width="80" height="670" as="geometry" />
        </mxCell>
        <mxCell id="GRbV-1sKYe_AMScIZNAF-27" value="" style="rounded=0;whiteSpace=wrap;html=1;fillColor=#dae8fc;strokeColor=#6c8ebf;" vertex="1" parent="1">
          <mxGeometry y="270" width="180" height="110" as="geometry" />
        </mxCell>
        <mxCell id="GRbV-1sKYe_AMScIZNAF-28" value="Client" style="text;html=1;strokeColor=none;fillColor=none;align=center;verticalAlign=middle;whiteSpace=wrap;rounded=0;fontStyle=1" vertex="1" parent="1">
          <mxGeometry y="270" width="180" height="30" as="geometry" />
        </mxCell>
        <mxCell id="GRbV-1sKYe_AMScIZNAF-30" value="Next.js" style="rounded=1;whiteSpace=wrap;html=1;" vertex="1" parent="1">
          <mxGeometry x="10" y="310" width="160" height="60" as="geometry" />
        </mxCell>
        <mxCell id="GRbV-1sKYe_AMScIZNAF-31" value="Common&lt;br&gt;Utilities" style="rounded=0;whiteSpace=wrap;html=1;fillColor=#d5e8d4;strokeColor=#82b366;" vertex="1" parent="1">
          <mxGeometry x="260" width="80" height="670" as="geometry" />
        </mxCell>
        <mxCell id="GRbV-1sKYe_AMScIZNAF-32" value="Service" style="rounded=0;whiteSpace=wrap;html=1;fillColor=#dae8fc;strokeColor=#6c8ebf;" vertex="1" parent="1">
          <mxGeometry width="120" height="20" as="geometry" />
        </mxCell>
        <mxCell id="GRbV-1sKYe_AMScIZNAF-33" value="JavaScript Library" style="rounded=0;whiteSpace=wrap;html=1;fillColor=#d5e8d4;strokeColor=#82b366;" vertex="1" parent="1">
          <mxGeometry y="20" width="120" height="20" as="geometry" />
        </mxCell>
        <mxCell id="GRbV-1sKYe_AMScIZNAF-35" value="mongo" style="shape=cylinder3;whiteSpace=wrap;html=1;boundedLbl=1;backgroundOutline=1;size=15;fillColor=#f5f5f5;fontColor=#333333;strokeColor=#666666;" vertex="1" parent="1">
          <mxGeometry x="530" y="40" width="60" height="60" as="geometry" />
        </mxCell>
        <mxCell id="GRbV-1sKYe_AMScIZNAF-36" value="mongo" style="shape=cylinder3;whiteSpace=wrap;html=1;boundedLbl=1;backgroundOutline=1;size=15;fillColor=#f5f5f5;fontColor=#333333;strokeColor=#666666;" vertex="1" parent="1">
          <mxGeometry x="530" y="180" width="60" height="60" as="geometry" />
        </mxCell>
        <mxCell id="GRbV-1sKYe_AMScIZNAF-37" value="mongo" style="shape=cylinder3;whiteSpace=wrap;html=1;boundedLbl=1;backgroundOutline=1;size=15;fillColor=#f5f5f5;fontColor=#333333;strokeColor=#666666;" vertex="1" parent="1">
          <mxGeometry x="530" y="320" width="60" height="60" as="geometry" />
        </mxCell>
        <mxCell id="GRbV-1sKYe_AMScIZNAF-38" value="mongo" style="shape=cylinder3;whiteSpace=wrap;html=1;boundedLbl=1;backgroundOutline=1;size=15;fillColor=#f5f5f5;fontColor=#333333;strokeColor=#666666;" vertex="1" parent="1">
          <mxGeometry x="530" y="460" width="60" height="60" as="geometry" />
        </mxCell>
        <mxCell id="GRbV-1sKYe_AMScIZNAF-39" value="Event Bus" style="rounded=0;whiteSpace=wrap;html=1;fillColor=#ffe6cc;strokeColor=#d79b00;" vertex="1" parent="1">
          <mxGeometry y="40" width="120" height="20" as="geometry" />
        </mxCell>
        <mxCell id="GRbV-1sKYe_AMScIZNAF-61" value="" style="endArrow=classic;html=1;rounded=0;" edge="1" parent="1">
          <mxGeometry width="50" height="50" relative="1" as="geometry">
            <mxPoint x="10" y="74.71000000000001" as="sourcePoint" />
            <mxPoint x="120" y="75" as="targetPoint" />
          </mxGeometry>
        </mxCell>
        <mxCell id="GRbV-1sKYe_AMScIZNAF-62" value="Communication" style="edgeLabel;html=1;align=center;verticalAlign=middle;resizable=0;points=[];" vertex="1" connectable="0" parent="GRbV-1sKYe_AMScIZNAF-61">
          <mxGeometry x="-0.2241" y="-2" relative="1" as="geometry">
            <mxPoint x="-13" y="-2" as="offset" />
          </mxGeometry>
        </mxCell>
        <mxCell id="GRbV-1sKYe_AMScIZNAF-63" value="" style="endArrow=classic;html=1;rounded=0;dashed=1;" edge="1" parent="1">
          <mxGeometry width="50" height="50" relative="1" as="geometry">
            <mxPoint x="10" y="89.71000000000001" as="sourcePoint" />
            <mxPoint x="120" y="90" as="targetPoint" />
          </mxGeometry>
        </mxCell>
        <mxCell id="GRbV-1sKYe_AMScIZNAF-64" value="Package Reference" style="edgeLabel;html=1;align=center;verticalAlign=middle;resizable=0;points=[];" vertex="1" connectable="0" parent="GRbV-1sKYe_AMScIZNAF-63">
          <mxGeometry x="-0.2241" y="-2" relative="1" as="geometry">
            <mxPoint x="-3" y="-2" as="offset" />
          </mxGeometry>
        </mxCell>
      </root>
    </mxGraphModel>
  </diagram>
</mxfile>
